<?xml version="1.0" standalone="no"?>
<!DOCTYPE svg PUBLIC "-//W3C//DTD SVG 20010904//EN"
 "http://www.w3.org/TR/2001/REC-SVG-20010904/DTD/svg10.dtd">
<svg version="1.0" xmlns="http://www.w3.org/2000/svg"
 width="2000.000000pt" height="2000.000000pt" viewBox="0 0 2000.000000 2000.000000"
 preserveAspectRatio="xMidYMid meet">
<metadata>
Created by potrace 1.14, written by Peter Selinger 2001-2017
</metadata>
<g transform="translate(0.000000,2000.000000) scale(0.100000,-0.100000)"
fill="#000000" stroke="none">
<path d="M6130 19992 c-147 -15 -315 -132 -387 -268 -69 -130 -64 98 -64
-2787 -1 -1980 -3 -2609 -12 -2613 -7 -2 -1191 -5 -2632 -6 l-2620 -3 -60 -22
c-168 -64 -297 -206 -338 -373 -11 -45 -13 -433 -12 -2215 2 -2015 3 -2164 19
-2213 46 -142 146 -258 277 -320 106 -51 10 -49 2529 -47 2108 2 2360 3 2401
17 91 32 155 72 224 142 58 59 82 94 139 206 138 273 360 700 362 697 1 -1
183 -312 404 -692 222 -379 432 -739 468 -800 36 -60 76 -130 90 -155 13 -25
34 -61 47 -80 12 -19 60 -100 106 -180 95 -165 160 -237 257 -288 113 -60 219
-78 340 -58 129 21 265 108 341 219 36 52 51 87 109 252 25 72 63 180 84 240
63 178 151 426 226 640 38 110 81 232 95 270 14 39 82 230 151 425 68 195 147
420 176 500 28 80 66 188 85 240 18 52 74 210 123 350 251 710 333 942 359
1017 15 46 30 83 34 83 3 0 31 -80 63 -177 32 -98 66 -203 76 -233 47 -142
244 -746 245 -750 1 -3 27 -84 58 -180 32 -96 121 -368 198 -605 77 -236 148
-455 158 -485 22 -63 227 -692 426 -1305 75 -231 149 -458 165 -505 30 -88
251 -767 340 -1045 107 -330 111 -341 174 -424 65 -87 174 -157 291 -188 54
-15 185 -11 254 7 129 33 255 130 320 245 24 42 118 330 136 419 3 11 11 40
19 65 9 25 45 150 81 276 37 127 109 379 162 560 53 182 98 339 100 350 3 11
7 27 10 35 3 8 7 20 9 27 1 7 11 43 23 80 22 74 160 549 166 573 2 8 20 71 40
140 21 69 39 132 41 140 2 8 35 123 73 255 76 263 144 495 197 679 19 66 36
122 38 123 3 4 31 -42 96 -161 15 -28 46 -82 67 -121 108 -192 224 -400 363
-650 86 -155 117 -201 170 -255 68 -67 155 -119 240 -141 35 -10 586 -13 2380
-13 l2335 -1 0 -1095 0 -1095 -2600 -1 c-1852 -1 -2617 -5 -2659 -13 -200 -37
-372 -213 -411 -418 -3 -15 -5 -1201 -5 -2634 0 -2079 -3 -2608 -12 -2611 -23
-7 -5261 -2 -5328 6 -36 4 -72 9 -80 11 -8 2 -31 7 -50 10 -111 18 -302 96
-433 177 -247 152 -454 396 -560 660 -29 74 -72 222 -81 283 -3 22 -9 58 -13
80 -3 22 -7 931 -7 2020 -2 1876 -3 1983 -20 2040 -54 181 -189 317 -364 367
-65 19 -136 19 -2342 22 -2259 2 -2276 3 -2346 23 -299 86 -509 304 -591 614
-3 13 -8 172 -10 354 -3 181 -6 332 -9 334 -3 3 -968 5 -1025 2 -14 -1 -16
-36 -13 -353 1 -194 5 -368 8 -386 3 -18 8 -52 11 -75 7 -42 24 -125 44 -203
55 -217 198 -491 360 -688 63 -76 184 -195 266 -262 55 -45 245 -174 256 -174
4 0 34 -15 67 -34 113 -64 339 -141 497 -170 11 -2 40 -7 65 -11 25 -3 59 -9
75 -12 17 -3 928 -6 2025 -7 l1995 -1 1 -1605 c2 -1873 2 -1859 50 -2110 142
-732 641 -1385 1307 -1708 151 -74 333 -145 427 -167 3 -1 48 -11 100 -22 52
-12 118 -28 145 -35 40 -9 694 -13 3135 -15 3029 -3 3086 -3 3142 16 148 50
270 174 325 332 l26 74 1 2612 c1 1436 5 2615 9 2620 5 4 1179 8 2610 8 2141
1 2612 3 2657 14 152 37 283 147 356 296 l29 60 0 1770 0 1770 -24 55 c-51
114 -142 210 -254 267 -110 55 19 53 -2608 53 l-2425 0 -21 38 c-11 20 -33 60
-48 87 -15 28 -59 106 -98 175 -38 69 -100 179 -137 245 -76 135 -283 505
-324 578 -58 104 -83 149 -169 302 -49 88 -100 178 -112 200 -27 50 -68 123
-109 195 -17 30 -40 73 -51 95 -11 21 -51 70 -88 108 -111 112 -252 166 -403
153 -181 -15 -354 -129 -430 -284 -14 -29 -57 -160 -95 -290 -37 -130 -100
-347 -139 -482 -40 -135 -73 -252 -75 -260 -2 -8 -27 -94 -55 -190 -80 -274
-151 -520 -245 -845 -48 -165 -107 -370 -131 -455 -86 -296 -176 -605 -195
-675 -11 -38 -22 -71 -24 -73 -2 -2 -17 41 -35 95 -37 116 -112 345 -325 998
-86 264 -184 563 -217 665 -66 203 -77 236 -201 615 -47 143 -142 436 -212
650 -70 215 -147 451 -172 525 -25 74 -46 140 -47 145 -2 10 -159 490 -236
725 -21 63 -97 297 -170 520 -72 223 -143 436 -157 473 -61 165 -188 284 -356
334 -53 16 -166 20 -237 8 -103 -16 -235 -94 -301 -177 -55 -70 -72 -106 -136
-287 -50 -143 -82 -233 -240 -681 -30 -85 -70 -198 -88 -250 -52 -150 -96
-273 -105 -295 -5 -11 -17 -47 -29 -80 -11 -33 -40 -118 -66 -190 -26 -71 -48
-134 -49 -140 -2 -5 -6 -17 -9 -25 -4 -8 -47 -132 -97 -275 -50 -143 -104
-296 -120 -340 -16 -44 -56 -159 -90 -255 -65 -186 -102 -289 -149 -422 -16
-46 -95 -270 -176 -498 -80 -228 -159 -451 -175 -495 -16 -44 -39 -110 -52
-147 -13 -38 -26 -68 -29 -68 -3 0 -34 48 -69 108 -35 59 -95 161 -134 227
-39 66 -73 125 -75 130 -2 6 -13 26 -26 45 -12 19 -47 78 -77 130 -31 52 -172
293 -313 535 -142 242 -267 456 -277 475 -132 234 -199 317 -303 375 -83 47
-139 64 -227 69 -175 11 -347 -67 -451 -206 -25 -34 -63 -104 -232 -433 -54
-104 -123 -239 -155 -300 -32 -60 -97 -186 -145 -280 -48 -93 -115 -223 -149
-287 l-61 -118 -1857 0 -1858 0 0 1553 0 1552 2596 0 c2118 0 2609 2 2663 13
207 42 376 216 408 420 4 26 7 1216 8 2645 l0 2597 35 0 c240 3 5260 -1 5275
-4 11 -2 47 -7 80 -11 123 -14 309 -77 452 -155 112 -60 215 -140 324 -251
208 -211 331 -461 385 -779 4 -25 9 -940 11 -2035 3 -1760 5 -1996 19 -2050
47 -182 199 -331 384 -376 45 -11 469 -13 2290 -14 1229 -1 2259 -5 2289 -9
78 -11 86 -13 154 -37 281 -97 497 -365 533 -659 4 -36 8 -186 9 -335 2 -148
3 -275 4 -280 1 -7 178 -10 516 -10 l515 0 0 374 c0 359 -1 378 -25 498 -23
111 -53 217 -99 341 -51 137 -190 368 -299 497 -331 391 -794 627 -1297 660
-30 2 -930 4 -2000 4 l-1945 1 -1 1653 c0 908 -3 1693 -7 1742 -12 165 -23
241 -62 415 -70 316 -242 667 -465 952 -145 184 -364 383 -579 523 -91 60
-277 160 -356 192 -16 7 -59 24 -95 39 -102 41 -241 82 -373 108 -119 24 -142
28 -257 42 -50 7 -5951 13 -6010 6z"/>
</g>
</svg>
